<svg xmlns="http://www.w3.org/2000/svg" viewBox="0 0 1100 720">
<rect width="1100" height="720" fill="#0a0a15"/>
<line x1="0.0" y1="0.0" x2="0.0" y2="720.0" stroke="#151525" stroke-width="0.4" opacity="0.25"></line>
<line x1="40.0" y1="0.0" x2="40.0" y2="720.0" stroke="#151525" stroke-width="0.4" opacity="0.25"></line>
<line x1="80.0" y1="0.0" x2="80.0" y2="720.0" stroke="#151525" stroke-width="0.4" opacity="0.25"></line>
<line x1="120.0" y1="0.0" x2="120.0" y2="720.0" stroke="#151525" stroke-width="0.4" opacity="0.25"></line>
<line x1="160.0" y1="0.0" x2="160.0" y2="720.0" stroke="#151525" stroke-width="0.4" opacity="0.25"></line>
<line x1="200.0" y1="0.0" x2="200.0" y2="720.0" stroke="#151525" stroke-width="0.4" opacity="0.25"></line>
<line x1="240.0" y1="0.0" x2="240.0" y2="720.0" stroke="#151525" stroke-width="0.4" opacity="0.25"></line>
<line x1="280.0" y1="0.0" x2="280.0" y2="720.0" stroke="#151525" stroke-width="0.4" opacity="0.25"></line>
<line x1="320.0" y1="0.0" x2="320.0" y2="720.0" stroke="#151525" stroke-width="0.4" opacity="0.25"></line>
<line x1="360.0" y1="0.0" x2="360.0" y2="720.0" stroke="#151525" stroke-width="0.4" opacity="0.25"></line>
<line x1="400.0" y1="0.0" x2="400.0" y2="720.0" stroke="#151525" stroke-width="0.4" opacity="0.25"></line>
<line x1="440.0" y1="0.0" x2="440.0" y2="720.0" stroke="#151525" stroke-width="0.4" opacity="0.25"></line>
<line x1="480.0" y1="0.0" x2="480.0" y2="720.0" stroke="#151525" stroke-width="0.4" opacity="0.25"></line>
<line x1="520.0" y1="0.0" x2="520.0" y2="720.0" stroke="#151525" stroke-width="0.4" opacity="0.25"></line>
<line x1="560.0" y1="0.0" x2="560.0" y2="720.0" stroke="#151525" stroke-width="0.4" opacity="0.25"></line>
<line x1="600.0" y1="0.0" x2="600.0" y2="720.0" stroke="#151525" stroke-width="0.4" opacity="0.25"></line>
<line x1="640.0" y1="0.0" x2="640.0" y2="720.0" stroke="#151525" stroke-width="0.4" opacity="0.25"></line>
<line x1="680.0" y1="0.0" x2="680.0" y2="720.0" stroke="#151525" stroke-width="0.4" opacity="0.25"></line>
<line x1="720.0" y1="0.0" x2="720.0" y2="720.0" stroke="#151525" stroke-width="0.4" opacity="0.25"></line>
<line x1="760.0" y1="0.0" x2="760.0" y2="720.0" stroke="#151525" stroke-width="0.4" opacity="0.25"></line>
<line x1="800.0" y1="0.0" x2="800.0" y2="720.0" stroke="#151525" stroke-width="0.4" opacity="0.25"></line>
<line x1="840.0" y1="0.0" x2="840.0" y2="720.0" stroke="#151525" stroke-width="0.4" opacity="0.25"></line>
<line x1="880.0" y1="0.0" x2="880.0" y2="720.0" stroke="#151525" stroke-width="0.4" opacity="0.25"></line>
<line x1="920.0" y1="0.0" x2="920.0" y2="720.0" stroke="#151525" stroke-width="0.4" opacity="0.25"></line>
<line x1="960.0" y1="0.0" x2="960.0" y2="720.0" stroke="#151525" stroke-width="0.4" opacity="0.25"></line>
<line x1="1000.0" y1="0.0" x2="1000.0" y2="720.0" stroke="#151525" stroke-width="0.4" opacity="0.25"></line>
<line x1="1040.0" y1="0.0" x2="1040.0" y2="720.0" stroke="#151525" stroke-width="0.4" opacity="0.25"></line>
<line x1="1080.0" y1="0.0" x2="1080.0" y2="720.0" stroke="#151525" stroke-width="0.4" opacity="0.25"></line>
<line x1="0.0" y1="0.0" x2="1100.0" y2="0.0" stroke="#151525" stroke-width="0.4" opacity="0.25"></line>
<line x1="0.0" y1="40.0" x2="1100.0" y2="40.0" stroke="#151525" stroke-width="0.4" opacity="0.25"></line>
<line x1="0.0" y1="80.0" x2="1100.0" y2="80.0" stroke="#151525" stroke-width="0.4" opacity="0.25"></line>
<line x1="0.0" y1="120.0" x2="1100.0" y2="120.0" stroke="#151525" stroke-width="0.4" opacity="0.25"></line>
<line x1="0.0" y1="160.0" x2="1100.0" y2="160.0" stroke="#151525" stroke-width="0.4" opacity="0.25"></line>
<line x1="0.0" y1="200.0" x2="1100.0" y2="200.0" stroke="#151525" stroke-width="0.4" opacity="0.25"></line>
<line x1="0.0" y1="240.0" x2="1100.0" y2="240.0" stroke="#151525" stroke-width="0.4" opacity="0.25"></line>
<line x1="0.0" y1="280.0" x2="1100.0" y2="280.0" stroke="#151525" stroke-width="0.4" opacity="0.25"></line>
<line x1="0.0" y1="320.0" x2="1100.0" y2="320.0" stroke="#151525" stroke-width="0.4" opacity="0.25"></line>
<line x1="0.0" y1="360.0" x2="1100.0" y2="360.0" stroke="#151525" stroke-width="0.4" opacity="0.25"></line>
<line x1="0.0" y1="400.0" x2="1100.0" y2="400.0" stroke="#151525" stroke-width="0.4" opacity="0.25"></line>
<line x1="0.0" y1="440.0" x2="1100.0" y2="440.0" stroke="#151525" stroke-width="0.4" opacity="0.25"></line>
<line x1="0.0" y1="480.0" x2="1100.0" y2="480.0" stroke="#151525" stroke-width="0.4" opacity="0.25"></line>
<line x1="0.0" y1="520.0" x2="1100.0" y2="520.0" stroke="#151525" stroke-width="0.4" opacity="0.25"></line>
<line x1="0.0" y1="560.0" x2="1100.0" y2="560.0" stroke="#151525" stroke-width="0.4" opacity="0.25"></line>
<line x1="0.0" y1="600.0" x2="1100.0" y2="600.0" stroke="#151525" stroke-width="0.4" opacity="0.25"></line>
<line x1="0.0" y1="640.0" x2="1100.0" y2="640.0" stroke="#151525" stroke-width="0.4" opacity="0.25"></line>
<line x1="0.0" y1="680.0" x2="1100.0" y2="680.0" stroke="#151525" stroke-width="0.4" opacity="0.25"></line>
<text x="550.0" y="26.0" fill="#cccccc" font-size="13" text-anchor="middle" font-family="monospace" font-weight="bold">verification that the correct semantic b</text>
<text x="550.0" y="41.0" fill="#777" font-size="7" text-anchor="middle" font-family="monospace">recombination-fork</text>
<text x="22.0" y="190.0" fill="#20c0b0" font-size="7" text-anchor="middle" font-family="monospace">T-lane</text>
<text x="22.0" y="135.0" fill="#20c0b0" font-size="7" text-anchor="middle" font-family="monospace">T[d1]</text>
<text x="22.0" y="470.0" fill="#e04060" font-size="7" text-anchor="middle" font-family="monospace">F-lane</text>
<text x="22.0" y="525.0" fill="#e04060" font-size="7" text-anchor="middle" font-family="monospace">F[d1]</text>
<text x="22.0" y="330.0" fill="#555" font-size="7" text-anchor="middle" font-family="monospace">main</text>
<line x1="422.0" y1="103.0" x2="422.0" y2="557.0" stroke="#cc3344" stroke-width="1.8" opacity="0.4" stroke-dasharray="6,4"></line>
<text x="422.0" y="93.0" fill="#cc3344" font-size="7" text-anchor="middle" font-family="monospace" font-weight="bold">IFIX</text>
<polygon points="422.0,99.0 426.0,103 422.0,107.0 418.0,103" fill="#cc3344" opacity="0.6"></polygon>
<polygon points="422.0,553.0 426.0,557 422.0,561.0 418.0,557" fill="#cc3344" opacity="0.6"></polygon>
<line x1="303.0" y1="302.4" x2="321.0" y2="302.4" stroke="#5b9bd5" stroke-width="1.4" opacity="0.55"></line>
<line x1="321.0" y1="302.4" x2="321.0" y2="162.6" stroke="#5b9bd5" stroke-width="1.4" opacity="0.55"></line>
<line x1="321.0" y1="162.6" x2="341.0" y2="162.6" stroke="#5b9bd5" stroke-width="1.4" opacity="0.55"></line>
<polygon points="349.0,162.6 341.0,165.8 341.0,159.4" fill="#5b9bd5" opacity="0.55"></polygon>
<line x1="387.0" y1="135.0" x2="385.0" y2="135.0" stroke="#20d0b8" stroke-width="1.3" opacity="0.55"></line>
<polygon points="393.0,135.0 385.0,138.2 385.0,131.8" fill="#20d0b8" opacity="0.55"></polygon>
<line x1="431.0" y1="162.6" x2="449.0" y2="162.6" stroke="#cc3344" stroke-width="1.3" opacity="0.55"></line>
<line x1="449.0" y1="162.6" x2="449.0" y2="302.4" stroke="#cc3344" stroke-width="1.3" opacity="0.55"></line>
<line x1="449.0" y1="302.4" x2="469.0" y2="302.4" stroke="#cc3344" stroke-width="1.3" opacity="0.55"></line>
<polygon points="477.0,302.4 469.0,305.6 469.0,299.2" fill="#cc3344" opacity="0.55"></polygon>
<line x1="323.0" y1="330.0" x2="449.0" y2="330.0" stroke="#2b6b9f" stroke-width="1.4" opacity="0.55"></line>
<polygon points="457.0,330.0 449.0,333.2 449.0,326.8" fill="#2b6b9f" opacity="0.55"></polygon>
<line x1="643.0" y1="330.0" x2="769.0" y2="330.0" stroke="#ed7d31" stroke-width="1.4" opacity="0.55"></line>
<polygon points="777.0,330.0 769.0,333.2 769.0,326.8" fill="#ed7d31" opacity="0.55"></polygon>
<line x1="623.0" y1="357.6" x2="649.0" y2="357.6" stroke="#b85a1c" stroke-width="1.4" opacity="0.55"></line>
<line x1="649.0" y1="357.6" x2="649.0" y2="497.4" stroke="#b85a1c" stroke-width="1.4" opacity="0.55"></line>
<line x1="649.0" y1="497.4" x2="661.0" y2="497.4" stroke="#b85a1c" stroke-width="1.4" opacity="0.55"></line>
<polygon points="669.0,497.4 661.0,500.6 661.0,494.2" fill="#b85a1c" opacity="0.55"></polygon>
<line x1="707.0" y1="525.0" x2="705.0" y2="525.0" stroke="#ff6688" stroke-width="1.3" opacity="0.55"></line>
<polygon points="713.0,525.0 705.0,528.2 705.0,521.8" fill="#ff6688" opacity="0.55"></polygon>
<line x1="751.0" y1="497.4" x2="769.0" y2="497.4" stroke="#e15759" stroke-width="1.3" opacity="0.55"></line>
<line x1="769.0" y1="497.4" x2="769.0" y2="357.6" stroke="#e15759" stroke-width="1.3" opacity="0.55"></line>
<line x1="769.0" y1="357.6" x2="789.0" y2="357.6" stroke="#e15759" stroke-width="1.3" opacity="0.55"></line>
<polygon points="797.0,357.6 789.0,360.8 789.0,354.4" fill="#e15759" opacity="0.55"></polygon>
<line x1="131.0" y1="330.0" x2="129.0" y2="330.0" stroke="#6baed6" stroke-width="1.3" opacity="0.75"></line>
<polygon points="137.0,330.0 129.0,333.2 129.0,326.8" fill="#6baed6" opacity="0.75"></polygon>
<rect x="132.0" y="318.0" width="4.0" height="10" fill="#0a0a15" opacity="0.7" rx="3"></rect>
<text x="134.0" y="326.0" fill="#20b888" font-size="6" text-anchor="middle" font-family="monospace">↑</text>
<line x1="195.0" y1="330.0" x2="193.0" y2="330.0" stroke="#ffd700" stroke-width="1.3" opacity="0.75"></line>
<polygon points="201.0,330.0 193.0,333.2 193.0,326.8" fill="#ffd700" opacity="0.75"></polygon>
<line x1="259.0" y1="330.0" x2="257.0" y2="330.0" stroke="#59a14f" stroke-width="1.3" opacity="0.75"></line>
<polygon points="265.0,330.0 257.0,333.2 257.0,326.8" fill="#59a14f" opacity="0.75"></polygon>
<line x1="579.0" y1="326.5" x2="576.0" y2="326.5" stroke="#f28e2b" stroke-width="1.0" opacity="0.75"></line>
<line x1="579.0" y1="333.5" x2="576.0" y2="333.5" stroke="#f28e2b" stroke-width="1.0" opacity="0.75"></line>
<polygon points="585.0,330.0 575.0,334.0 575.0,326.0" fill="#f28e2b" opacity="0.75"></polygon>
<line x1="899.0" y1="330.0" x2="897.0" y2="330.0" stroke="#e15759" stroke-width="1.3" opacity="0.75"></line>
<polygon points="905.0,330.0 897.0,333.2 897.0,326.8" fill="#e15759" opacity="0.75"></polygon>
<line x1="963.0" y1="326.5" x2="960.0" y2="326.5" stroke="#f28e2b" stroke-width="1.0" opacity="0.75"></line>
<line x1="963.0" y1="333.5" x2="960.0" y2="333.5" stroke="#f28e2b" stroke-width="1.0" opacity="0.75"></line>
<polygon points="969.0,330.0 959.0,334.0 959.0,326.0" fill="#f28e2b" opacity="0.75"></polygon>
<line x1="515.0" y1="330.0" x2="513.0" y2="330.0" stroke="#ffd700" stroke-width="1.3" opacity="0.55"></line>
<polygon points="521.0,330.0 513.0,333.2 513.0,326.8" fill="#ffd700" opacity="0.55"></polygon>
<line x1="835.0" y1="330.0" x2="833.0" y2="330.0" stroke="#ffd700" stroke-width="1.3" opacity="0.55"></line>
<polygon points="841.0,330.0 833.0,333.2 833.0,326.8" fill="#ffd700" opacity="0.55"></polygon>
<path d="M323.0,330.0 Q390.0,470.0 457.0,330.0" fill="none" stroke="#2b6b9f" stroke-dasharray="4,4" stroke-width="1" opacity="0.25"></path>
<path d="M643.0,330.0 Q710.0,190.0 777.0,330.0" fill="none" stroke="#ed7d31" stroke-dasharray="4,4" stroke-width="1" opacity="0.25"></path>
<circle cx="102.0" cy="330.0" r="22.0" fill="#4e79a7" stroke="#ffffff20" stroke-width="1.0"></circle>
<text x="102.0" y="300.0" fill="#cccccc" font-size="8" text-anchor="middle" font-family="monospace" font-weight="bold">VI</text>
<text x="102.0" y="364.0" fill="#888" font-size="5.5" text-anchor="middle" font-family="monospace">VINIT</text>
<circle cx="125.0" cy="330.0" r="2.5" fill="#ffffff90" stroke-width="0"></circle>
<circle cx="166.0" cy="330.0" r="22.0" fill="#4e79a7" stroke="#ffffff20" stroke-width="1.0"></circle>
<circle cx="166.0" cy="330.0" r="12.1" fill="#153530" stroke-width="0"></circle>
<text x="166.0" y="332.0" fill="#20b2aa" font-size="7" text-anchor="middle" font-family="monospace" font-weight="bold">↑</text>
<text x="166.0" y="300.0" fill="#cccccc" font-size="8" text-anchor="middle" font-family="monospace" font-weight="bold">IM</text>
<text x="166.0" y="364.0" fill="#888" font-size="5.5" text-anchor="middle" font-family="monospace">IMSCRIB</text>
<circle cx="143.0" cy="330.0" r="2.5" fill="#ffffff60" stroke-width="0"></circle>
<circle cx="189.0" cy="330.0" r="2.5" fill="#ffffff90" stroke-width="0"></circle>
<circle cx="230.0" cy="330.0" r="22.0" fill="#4e79a7" stroke="#ffffff20" stroke-width="1.0"></circle>
<circle cx="230.0" cy="330.0" r="12.1" fill="#153530" stroke-width="0"></circle>
<text x="230.0" y="332.0" fill="#20b2aa" font-size="7" text-anchor="middle" font-family="monospace" font-weight="bold">↑</text>
<text x="230.0" y="300.0" fill="#cccccc" font-size="8" text-anchor="middle" font-family="monospace" font-weight="bold">AF</text>
<text x="230.0" y="364.0" fill="#888" font-size="5.5" text-anchor="middle" font-family="monospace">AFWD</text>
<circle cx="207.0" cy="330.0" r="2.5" fill="#ffffff60" stroke-width="0"></circle>
<circle cx="253.0" cy="330.0" r="2.5" fill="#ffffff90" stroke-width="0"></circle>
<polygon points="294.0,308.0 316.0,330 294.0,352.0 272.0,330" fill="#ffd700" stroke="#ffffff20" stroke-width="1.0"></polygon>
<circle cx="294.0" cy="330.0" r="12.1" fill="#153530" stroke-width="0"></circle>
<text x="294.0" y="332.0" fill="#20b2aa" font-size="7" text-anchor="middle" font-family="monospace" font-weight="bold">↑</text>
<text x="294.0" y="300.0" fill="#cccccc" font-size="8" text-anchor="middle" font-family="monospace" font-weight="bold">FS</text>
<text x="294.0" y="364.0" fill="#888" font-size="5.5" text-anchor="middle" font-family="monospace">FSPLIT</text>
<circle cx="271.0" cy="330.0" r="2.5" fill="#ffffff60" stroke-width="0"></circle>
<circle cx="317.0" cy="323.0" r="2.5" fill="#ffffff90" stroke-width="0"></circle>
<circle cx="317.0" cy="337.0" r="2.5" fill="#ffffff90" stroke-width="0"></circle>
<polygon points="377.1,146.0 358.0,157.0 338.9,146.0 338.9,124.0 358.0,113.0 377.1,124.0" fill="#e15759" stroke="#ffffff20" stroke-width="1.0"></polygon>
<circle cx="358.0" cy="135.0" r="12.1" fill="#153530" stroke-width="0"></circle>
<text x="358.0" y="137.0" fill="#20b2aa" font-size="7" text-anchor="middle" font-family="monospace" font-weight="bold">↑</text>
<text x="358.0" y="105.0" fill="#cccccc" font-size="8" text-anchor="middle" font-family="monospace" font-weight="bold">ET</text>
<text x="358.0" y="169.0" fill="#888" font-size="5.5" text-anchor="middle" font-family="monospace">EVALT</text>
<circle cx="335.0" cy="135.0" r="3.5" fill="#f28e2b" stroke-width="0.8"></circle>
<circle cx="381.0" cy="135.0" r="3.5" fill="#59a14f" stroke-width="0.9"></circle>
<rect x="400.0" y="113.0" width="44.0" height="44.0" fill="#59a14f" stroke="#ffffff20" stroke-width="1.0"></rect>
<circle cx="422.0" cy="135.0" r="12.1" fill="#153530" stroke-width="0"></circle>
<text x="422.0" y="137.0" fill="#20b2aa" font-size="7" text-anchor="middle" font-family="monospace" font-weight="bold">↑</text>
<text x="422.0" y="105.0" fill="#cccccc" font-size="8" text-anchor="middle" font-family="monospace" font-weight="bold">IX</text>
<text x="422.0" y="169.0" fill="#888" font-size="5.5" text-anchor="middle" font-family="monospace">IFIX</text>
<circle cx="399.0" cy="135.0" r="2.5" fill="#ffffff60" stroke-width="0"></circle>
<circle cx="445.0" cy="135.0" r="2.5" fill="#ffffff90" stroke-width="0"></circle>
<polygon points="486.0,308.0 508.0,330 486.0,352.0 464.0,330" fill="#ffd700" stroke="#ffffff20" stroke-width="1.0"></polygon>
<circle cx="486.0" cy="330.0" r="12.1" fill="#153530" stroke-width="0"></circle>
<text x="486.0" y="332.0" fill="#20b2aa" font-size="7" text-anchor="middle" font-family="monospace" font-weight="bold">↑</text>
<text x="486.0" y="300.0" fill="#cccccc" font-size="8" text-anchor="middle" font-family="monospace" font-weight="bold">FF</text>
<text x="486.0" y="364.0" fill="#888" font-size="5.5" text-anchor="middle" font-family="monospace">FFUSE</text>
<circle cx="463.0" cy="323.0" r="2.5" fill="#ffffff60" stroke-width="0"></circle>
<circle cx="463.0" cy="337.0" r="2.5" fill="#ffffff60" stroke-width="0"></circle>
<circle cx="509.0" cy="330.0" r="2.5" fill="#ffffff90" stroke-width="0"></circle>
<circle cx="550.0" cy="330.0" r="22.0" fill="#4e79a7" stroke="#ffffff20" stroke-width="1.0"></circle>
<circle cx="550.0" cy="330.0" r="12.1" fill="#153530" stroke-width="0"></circle>
<text x="550.0" y="332.0" fill="#20b2aa" font-size="7" text-anchor="middle" font-family="monospace" font-weight="bold">↑</text>
<text x="550.0" y="300.0" fill="#cccccc" font-size="8" text-anchor="middle" font-family="monospace" font-weight="bold">CL</text>
<text x="550.0" y="364.0" fill="#888" font-size="5.5" text-anchor="middle" font-family="monospace">CLINK</text>
<circle cx="527.0" cy="330.0" r="2.5" fill="#ffffff60" stroke-width="0"></circle>
<circle cx="573.0" cy="330.0" r="2.5" fill="#ffffff90" stroke-width="0"></circle>
<polygon points="614.0,308.0 636.0,330 614.0,352.0 592.0,330" fill="#ffd700" stroke="#ffffff20" stroke-width="1.0"></polygon>
<circle cx="614.0" cy="330.0" r="12.1" fill="#153530" stroke-width="0"></circle>
<text x="614.0" y="332.0" fill="#20b2aa" font-size="7" text-anchor="middle" font-family="monospace" font-weight="bold">↑</text>
<text x="614.0" y="300.0" fill="#cccccc" font-size="8" text-anchor="middle" font-family="monospace" font-weight="bold">FS</text>
<text x="614.0" y="364.0" fill="#888" font-size="5.5" text-anchor="middle" font-family="monospace">FSPLIT</text>
<circle cx="591.0" cy="330.0" r="2.5" fill="#ffffff60" stroke-width="0"></circle>
<circle cx="637.0" cy="323.0" r="2.5" fill="#ffffff90" stroke-width="0"></circle>
<circle cx="637.0" cy="337.0" r="2.5" fill="#ffffff90" stroke-width="0"></circle>
<polygon points="697.1,536.0 678.0,547.0 658.9,536.0 658.9,514.0 678.0,503.0 697.1,514.0" fill="#e15759" stroke="#ffffff20" stroke-width="1.0"></polygon>
<circle cx="678.0" cy="525.0" r="12.1" fill="#153530" stroke-width="0"></circle>
<text x="678.0" y="527.0" fill="#20b2aa" font-size="7" text-anchor="middle" font-family="monospace" font-weight="bold">↑</text>
<text x="678.0" y="495.0" fill="#cccccc" font-size="8" text-anchor="middle" font-family="monospace" font-weight="bold">EF</text>
<text x="678.0" y="559.0" fill="#888" font-size="5.5" text-anchor="middle" font-family="monospace">EVALF</text>
<circle cx="655.0" cy="525.0" r="3.5" fill="#f28e2b" stroke-width="0.8"></circle>
<circle cx="701.0" cy="525.0" r="3.5" fill="#59a14f" stroke-width="0.9"></circle>
<circle cx="742.0" cy="525.0" r="22.0" fill="#4e79a7" stroke="#ffffff20" stroke-width="1.0"></circle>
<circle cx="742.0" cy="525.0" r="12.1" fill="#153530" stroke-width="0"></circle>
<text x="742.0" y="527.0" fill="#20b2aa" font-size="7" text-anchor="middle" font-family="monospace" font-weight="bold">↑</text>
<text x="742.0" y="495.0" fill="#cccccc" font-size="8" text-anchor="middle" font-family="monospace" font-weight="bold">AR</text>
<text x="742.0" y="559.0" fill="#888" font-size="5.5" text-anchor="middle" font-family="monospace">AREV</text>
<circle cx="719.0" cy="525.0" r="2.5" fill="#ffffff60" stroke-width="0"></circle>
<circle cx="765.0" cy="525.0" r="2.5" fill="#ffffff90" stroke-width="0"></circle>
<polygon points="806.0,308.0 828.0,330 806.0,352.0 784.0,330" fill="#ffd700" stroke="#ffffff20" stroke-width="1.0"></polygon>
<circle cx="806.0" cy="330.0" r="12.1" fill="#153530" stroke-width="0"></circle>
<text x="806.0" y="332.0" fill="#20b2aa" font-size="7" text-anchor="middle" font-family="monospace" font-weight="bold">↑</text>
<text x="806.0" y="300.0" fill="#cccccc" font-size="8" text-anchor="middle" font-family="monospace" font-weight="bold">FF</text>
<text x="806.0" y="364.0" fill="#888" font-size="5.5" text-anchor="middle" font-family="monospace">FFUSE</text>
<circle cx="783.0" cy="323.0" r="2.5" fill="#ffffff60" stroke-width="0"></circle>
<circle cx="783.0" cy="337.0" r="2.5" fill="#ffffff60" stroke-width="0"></circle>
<circle cx="829.0" cy="330.0" r="2.5" fill="#ffffff90" stroke-width="0"></circle>
<polygon points="889.1,341.0 870.0,352.0 850.9,341.0 850.9,319.0 870.0,308.0 889.1,319.0" fill="#e15759" stroke="#ffffff20" stroke-width="1.0"></polygon>
<circle cx="870.0" cy="330.0" r="12.1" fill="#153530" stroke-width="0"></circle>
<text x="870.0" y="332.0" fill="#20b2aa" font-size="7" text-anchor="middle" font-family="monospace" font-weight="bold">↑</text>
<text x="870.0" y="300.0" fill="#cccccc" font-size="8" text-anchor="middle" font-family="monospace" font-weight="bold">EG</text>
<text x="870.0" y="364.0" fill="#888" font-size="5.5" text-anchor="middle" font-family="monospace">ENGAGR</text>
<circle cx="847.0" cy="330.0" r="2.5" fill="#ffffff60" stroke-width="0"></circle>
<circle cx="893.0" cy="330.0" r="2.5" fill="#ffffff90" stroke-width="0"></circle>
<circle cx="934.0" cy="330.0" r="22.0" fill="#4e79a7" stroke="#ffffff20" stroke-width="1.0"></circle>
<circle cx="934.0" cy="330.0" r="12.1" fill="#153530" stroke-width="0"></circle>
<text x="934.0" y="332.0" fill="#20b2aa" font-size="7" text-anchor="middle" font-family="monospace" font-weight="bold">↑</text>
<text x="934.0" y="300.0" fill="#cccccc" font-size="8" text-anchor="middle" font-family="monospace" font-weight="bold">CL</text>
<text x="934.0" y="364.0" fill="#888" font-size="5.5" text-anchor="middle" font-family="monospace">CLINK</text>
<circle cx="911.0" cy="330.0" r="2.5" fill="#ffffff60" stroke-width="0"></circle>
<circle cx="957.0" cy="330.0" r="2.5" fill="#ffffff90" stroke-width="0"></circle>
<circle cx="998.0" cy="330.0" r="22.0" fill="#4e79a7" stroke="#ffffff20" stroke-width="1.0"></circle>
<circle cx="998.0" cy="330.0" r="12.1" fill="#153530" stroke-width="0"></circle>
<text x="998.0" y="332.0" fill="#20b2aa" font-size="7" text-anchor="middle" font-family="monospace" font-weight="bold">↑</text>
<text x="998.0" y="300.0" fill="#cccccc" font-size="8" text-anchor="middle" font-family="monospace" font-weight="bold">TA</text>
<text x="998.0" y="364.0" fill="#888" font-size="5.5" text-anchor="middle" font-family="monospace">TANCH</text>
<circle cx="975.0" cy="330.0" r="2.5" fill="#ffffff60" stroke-width="0"></circle>
<circle cx="1021.0" cy="330.0" r="2.5" fill="#ffffff90" stroke-width="0"></circle>
<text x="550.0" y="711.0" fill="#9988aa" font-size="7" text-anchor="middle" font-family="serif">Ouroboricity: O₁</text>
<text x="70.0" y="52.0" fill="#666" font-size="6" text-anchor="start" font-family="monospace" font-weight="bold">NODES</text>
<circle cx="110.0" cy="59.0" r="4.5" fill="#4e79a7" stroke-width="0"></circle>
<text x="120.0" y="62.0" fill="#4e79a7" font-size="5" text-anchor="start" font-family="monospace">LOGI</text>
<polygon points="158,54.5 162.5,59 158,63.5 153.5,59" fill="#ffd700" stroke="#ffffff20" stroke-width="1.0"></polygon>
<text x="168.0" y="62.0" fill="#ffd700" font-size="5" text-anchor="start" font-family="monospace">FROB</text>
<polygon points="209.9,61.2 206.0,63.5 202.1,61.2 202.1,56.8 206.0,54.5 209.9,56.8" fill="#e15759" stroke="#ffffff20" stroke-width="1.0"></polygon>
<text x="216.0" y="62.0" fill="#e15759" font-size="5" text-anchor="start" font-family="monospace">DIAL</text>
<rect x="249.5" y="54.5" width="9.0" height="9.0" fill="#59a14f" stroke="#ffffff20" stroke-width="1.0"></rect>
<text x="264.0" y="62.0" fill="#59a14f" font-size="5" text-anchor="start" font-family="monospace">LINE</text>
<text x="312.0" y="52.0" fill="#666" font-size="6" text-anchor="start" font-family="monospace" font-weight="bold">EDGES</text>
<line x1="350.0" y1="59.0" x2="364.0" y2="59.0" stroke="#59a14f" stroke-width="1.5" opacity="0.7"></line>
<text x="368.0" y="62.0" fill="#59a14f" font-size="5" text-anchor="start" font-family="monospace">AFWD</text>
<line x1="402.0" y1="59.0" x2="416.0" y2="59.0" stroke="#e15759" stroke-width="1.5" opacity="0.7"></line>
<text x="420.0" y="62.0" fill="#e15759" font-size="5" text-anchor="start" font-family="monospace">AREV</text>
<line x1="454.0" y1="59.0" x2="468.0" y2="59.0" stroke="#f28e2b" stroke-width="1.5" opacity="0.7"></line>
<text x="472.0" y="62.0" fill="#f28e2b" font-size="5" text-anchor="start" font-family="monospace">CLINK</text>
<line x1="506.0" y1="59.0" x2="520.0" y2="59.0" stroke="#b07aa1" stroke-width="1.5" opacity="0.7" stroke-dasharray="4,3"></line>
<text x="524.0" y="62.0" fill="#b07aa1" font-size="5" text-anchor="start" font-family="monospace">TANCH</text>
<line x1="558.0" y1="59.0" x2="572.0" y2="59.0" stroke="#ffd700" stroke-width="1.5" opacity="0.7"></line>
<text x="576.0" y="62.0" fill="#ffd700" font-size="5" text-anchor="start" font-family="monospace">IMSC</text>
<line x1="610.0" y1="59.0" x2="624.0" y2="59.0" stroke="#cc3344" stroke-width="1.5" opacity="0.7"></line>
<text x="628.0" y="62.0" fill="#cc3344" font-size="5" text-anchor="start" font-family="monospace">IFIX</text>
<text x="70.0" y="72.0" fill="#666" font-size="6" text-anchor="start" font-family="monospace" font-weight="bold">GUARD</text>
<circle cx="110.0" cy="79.0" r="3.0" fill="#f28e2b" stroke-width="0.8"></circle>
<text x="117.0" y="82.0" fill="#f28e2b" font-size="5" text-anchor="start" font-family="monospace">approach</text>
<circle cx="162.0" cy="79.0" r="3.0" fill="#59a14f" stroke-width="0.9"></circle>
<text x="169.0" y="82.0" fill="#59a14f" font-size="5" text-anchor="start" font-family="monospace">passed</text>
<text x="214.0" y="72.0" fill="#666" font-size="6" text-anchor="start" font-family="monospace" font-weight="bold">REG Δ</text>
<text x="252.0" y="82.0" fill="#20b888" font-size="5.5" text-anchor="start" font-family="monospace">→↑</text>
<text x="280.0" y="82.0" fill="#ffd700" font-size="5.5" text-anchor="start" font-family="monospace">↓→↑↓</text>
<text x="308.0" y="82.0" fill="#e15759" font-size="5.5" text-anchor="start" font-family="monospace">↑↔↓</text>
<line x1="344.0" y1="79.0" x2="358.0" y2="79.0" stroke="#ffd700" stroke-width="1.5" opacity="0.6" stroke-dasharray="5,3"></line>
<text x="362.0" y="82.0" fill="#ffd700" font-size="5.5" text-anchor="start" font-family="monospace">cross-br.</text>
<line x1="404.0" y1="79.0" x2="418.0" y2="79.0" stroke="#9988cc" stroke-width="1.5" opacity="0.5"></line>
<text x="422.0" y="82.0" fill="#9988cc" font-size="5.5" text-anchor="start" font-family="monospace">loop</text>
<rect x="266.0" y="302" width="248.0" height="56" fill="none" stroke="#4e79a7" stroke-width="1.2" opacity="0.2" rx="8" ry="8" stroke-dasharray="4,3"></rect>
<text x="270.0" y="300.0" fill="#4e79a7" font-size="5" text-anchor="start" font-family="monospace">d1</text>
<rect x="586.0" y="302" width="248.0" height="56" fill="none" stroke="#70ad47" stroke-width="1.2" opacity="0.2" rx="8" ry="8" stroke-dasharray="4,3"></rect>
<text x="590.0" y="300.0" fill="#70ad47" font-size="5" text-anchor="start" font-family="monospace">d1</text>
<rect x="940" y="48" width="145" height="22" fill="#4e79a7" opacity="0.15" rx="4"></rect>
<rect x="940" y="48" width="145" height="22" fill="none" stroke="#4e79a7" stroke-width="1" rx="4"></rect>
<text x="1012.0" y="63.0" fill="#4e79a7" font-size="8" text-anchor="middle" font-family="monospace" font-weight="bold">FLAT_CHAIN</text>
<text x="940.0" y="78.0" fill="#888" font-size="6" text-anchor="start" font-family="monospace">depth:0  open-forks:0  cross:0  empty:0</text>
<text x="940.0" y="86.0" fill="#777" font-size="5.5" text-anchor="start" font-family="monospace">T:2 / F:2</text>
<rect x="940" y="88" width="72.5" height="6" fill="#20d0b8" opacity="0.6" rx="2"></rect>
<rect x="1012.5" y="88" width="72.5" height="6" fill="#ff6688" opacity="0.6" rx="2"></rect>
<path d="M969.0,330.0 L969.0,10.0 L131.0,10.0 L131.0,330.0" fill="none" stroke="#9988cc" stroke-width="1.8" opacity="0.75"></path>
<polygon points="131.0,330.0 127.4,321.0 134.6,321.0" fill="#9988cc" opacity="0.75"></polygon>
<text x="550.0" y="12.0" fill="#9988cc" font-size="8" text-anchor="middle" font-family="serif">O₁</text>
</svg>