<svg xmlns="http://www.w3.org/2000/svg" viewBox="0 0 1220 720">
<rect width="1220" height="720" fill="#000000"/>
<defs>
<pattern id="hatch-T" width="4" height="4" patternUnits="userSpaceOnUse"><path d="M2,0 L2,4" stroke="#ffffff" stroke-width="0.8"/></pattern>
<pattern id="hatch-F" width="4" height="4" patternUnits="userSpaceOnUse"><path d="M0,2 L4,2" stroke="#ffffff" stroke-width="0.8"/></pattern>
<pattern id="hatch-B" width="4" height="4" patternUnits="userSpaceOnUse"><path d="M2,0 L2,4 M0,2 L4,2" stroke="#ffffff" stroke-width="0.8"/></pattern>
</defs>
<line x1="0.0" y1="0.0" x2="0.0" y2="720.0" stroke="#333333" stroke-width="0.4" opacity="0.3"></line>
<line x1="40.0" y1="0.0" x2="40.0" y2="720.0" stroke="#333333" stroke-width="0.4" opacity="0.3"></line>
<line x1="80.0" y1="0.0" x2="80.0" y2="720.0" stroke="#333333" stroke-width="0.4" opacity="0.3"></line>
<line x1="120.0" y1="0.0" x2="120.0" y2="720.0" stroke="#333333" stroke-width="0.4" opacity="0.3"></line>
<line x1="160.0" y1="0.0" x2="160.0" y2="720.0" stroke="#333333" stroke-width="0.4" opacity="0.3"></line>
<line x1="200.0" y1="0.0" x2="200.0" y2="720.0" stroke="#333333" stroke-width="0.4" opacity="0.3"></line>
<line x1="240.0" y1="0.0" x2="240.0" y2="720.0" stroke="#333333" stroke-width="0.4" opacity="0.3"></line>
<line x1="280.0" y1="0.0" x2="280.0" y2="720.0" stroke="#333333" stroke-width="0.4" opacity="0.3"></line>
<line x1="320.0" y1="0.0" x2="320.0" y2="720.0" stroke="#333333" stroke-width="0.4" opacity="0.3"></line>
<line x1="360.0" y1="0.0" x2="360.0" y2="720.0" stroke="#333333" stroke-width="0.4" opacity="0.3"></line>
<line x1="400.0" y1="0.0" x2="400.0" y2="720.0" stroke="#333333" stroke-width="0.4" opacity="0.3"></line>
<line x1="440.0" y1="0.0" x2="440.0" y2="720.0" stroke="#333333" stroke-width="0.4" opacity="0.3"></line>
<line x1="480.0" y1="0.0" x2="480.0" y2="720.0" stroke="#333333" stroke-width="0.4" opacity="0.3"></line>
<line x1="520.0" y1="0.0" x2="520.0" y2="720.0" stroke="#333333" stroke-width="0.4" opacity="0.3"></line>
<line x1="560.0" y1="0.0" x2="560.0" y2="720.0" stroke="#333333" stroke-width="0.4" opacity="0.3"></line>
<line x1="600.0" y1="0.0" x2="600.0" y2="720.0" stroke="#333333" stroke-width="0.4" opacity="0.3"></line>
<line x1="640.0" y1="0.0" x2="640.0" y2="720.0" stroke="#333333" stroke-width="0.4" opacity="0.3"></line>
<line x1="680.0" y1="0.0" x2="680.0" y2="720.0" stroke="#333333" stroke-width="0.4" opacity="0.3"></line>
<line x1="720.0" y1="0.0" x2="720.0" y2="720.0" stroke="#333333" stroke-width="0.4" opacity="0.3"></line>
<line x1="760.0" y1="0.0" x2="760.0" y2="720.0" stroke="#333333" stroke-width="0.4" opacity="0.3"></line>
<line x1="800.0" y1="0.0" x2="800.0" y2="720.0" stroke="#333333" stroke-width="0.4" opacity="0.3"></line>
<line x1="840.0" y1="0.0" x2="840.0" y2="720.0" stroke="#333333" stroke-width="0.4" opacity="0.3"></line>
<line x1="880.0" y1="0.0" x2="880.0" y2="720.0" stroke="#333333" stroke-width="0.4" opacity="0.3"></line>
<line x1="920.0" y1="0.0" x2="920.0" y2="720.0" stroke="#333333" stroke-width="0.4" opacity="0.3"></line>
<line x1="960.0" y1="0.0" x2="960.0" y2="720.0" stroke="#333333" stroke-width="0.4" opacity="0.3"></line>
<line x1="1000.0" y1="0.0" x2="1000.0" y2="720.0" stroke="#333333" stroke-width="0.4" opacity="0.3"></line>
<line x1="1040.0" y1="0.0" x2="1040.0" y2="720.0" stroke="#333333" stroke-width="0.4" opacity="0.3"></line>
<line x1="1080.0" y1="0.0" x2="1080.0" y2="720.0" stroke="#333333" stroke-width="0.4" opacity="0.3"></line>
<line x1="1120.0" y1="0.0" x2="1120.0" y2="720.0" stroke="#333333" stroke-width="0.4" opacity="0.3"></line>
<line x1="1160.0" y1="0.0" x2="1160.0" y2="720.0" stroke="#333333" stroke-width="0.4" opacity="0.3"></line>
<line x1="1200.0" y1="0.0" x2="1200.0" y2="720.0" stroke="#333333" stroke-width="0.4" opacity="0.3"></line>
<line x1="0.0" y1="0.0" x2="1220.0" y2="0.0" stroke="#333333" stroke-width="0.4" opacity="0.3"></line>
<line x1="0.0" y1="40.0" x2="1220.0" y2="40.0" stroke="#333333" stroke-width="0.4" opacity="0.3"></line>
<line x1="0.0" y1="80.0" x2="1220.0" y2="80.0" stroke="#333333" stroke-width="0.4" opacity="0.3"></line>
<line x1="0.0" y1="120.0" x2="1220.0" y2="120.0" stroke="#333333" stroke-width="0.4" opacity="0.3"></line>
<line x1="0.0" y1="160.0" x2="1220.0" y2="160.0" stroke="#333333" stroke-width="0.4" opacity="0.3"></line>
<line x1="0.0" y1="200.0" x2="1220.0" y2="200.0" stroke="#333333" stroke-width="0.4" opacity="0.3"></line>
<line x1="0.0" y1="240.0" x2="1220.0" y2="240.0" stroke="#333333" stroke-width="0.4" opacity="0.3"></line>
<line x1="0.0" y1="280.0" x2="1220.0" y2="280.0" stroke="#333333" stroke-width="0.4" opacity="0.3"></line>
<line x1="0.0" y1="320.0" x2="1220.0" y2="320.0" stroke="#333333" stroke-width="0.4" opacity="0.3"></line>
<line x1="0.0" y1="360.0" x2="1220.0" y2="360.0" stroke="#333333" stroke-width="0.4" opacity="0.3"></line>
<line x1="0.0" y1="400.0" x2="1220.0" y2="400.0" stroke="#333333" stroke-width="0.4" opacity="0.3"></line>
<line x1="0.0" y1="440.0" x2="1220.0" y2="440.0" stroke="#333333" stroke-width="0.4" opacity="0.3"></line>
<line x1="0.0" y1="480.0" x2="1220.0" y2="480.0" stroke="#333333" stroke-width="0.4" opacity="0.3"></line>
<line x1="0.0" y1="520.0" x2="1220.0" y2="520.0" stroke="#333333" stroke-width="0.4" opacity="0.3"></line>
<line x1="0.0" y1="560.0" x2="1220.0" y2="560.0" stroke="#333333" stroke-width="0.4" opacity="0.3"></line>
<line x1="0.0" y1="600.0" x2="1220.0" y2="600.0" stroke="#333333" stroke-width="0.4" opacity="0.3"></line>
<line x1="0.0" y1="640.0" x2="1220.0" y2="640.0" stroke="#333333" stroke-width="0.4" opacity="0.3"></line>
<line x1="0.0" y1="680.0" x2="1220.0" y2="680.0" stroke="#333333" stroke-width="0.4" opacity="0.3"></line>
<text x="610.0" y="26.0" fill="#ffffff" font-size="13" text-anchor="middle" font-family="monospace" font-weight="bold">verification that the correct semantic b</text>
<text x="610.0" y="41.0" fill="#ffffff" font-size="7" text-anchor="middle" font-family="monospace">recombination-fork</text>
<text x="66.0" y="190.0" fill="#ffffff" font-size="7" text-anchor="start" font-family="monospace">T-lane</text>
<text x="66.0" y="135.0" fill="#ffffff" font-size="7" text-anchor="start" font-family="monospace">T[d1]</text>
<text x="66.0" y="470.0" fill="#ffffff" font-size="7" text-anchor="start" font-family="monospace">F-lane</text>
<text x="66.0" y="525.0" fill="#ffffff" font-size="7" text-anchor="start" font-family="monospace">F[d1]</text>
<text x="66.0" y="330.0" fill="#ffffff" font-size="7" text-anchor="start" font-family="monospace">main</text>
<line x1="419.5" y1="105.0" x2="419.5" y2="555.0" stroke="#ffffff" stroke-width="1.0" opacity="1.0" stroke-dasharray="4,3"></line>
<line x1="424.5" y1="105.0" x2="424.5" y2="555.0" stroke="#ffffff" stroke-width="1.0" opacity="1.0" stroke-dasharray="4,3"></line>
<text x="422.0" y="105.0" fill="#ffffff" font-size="8" text-anchor="middle" font-family="monospace">×</text>
<text x="422.0" y="555.0" fill="#ffffff" font-size="8" text-anchor="middle" font-family="monospace">×</text>
<text x="422.0" y="98.0" fill="#ffffff" font-size="6" text-anchor="middle" font-family="monospace">IFIX</text>
<line x1="294.0" y1="310.0" x2="294.0" y2="292.0" stroke="#ffffff" stroke-width="0.6" opacity="0.8" stroke-dasharray="3,3"></line>
<line x1="294.0" y1="292.0" x2="486.0" y2="292.0" stroke="#ffffff" stroke-width="0.6" opacity="0.8" stroke-dasharray="3,3"></line>
<line x1="486.0" y1="292.0" x2="486.0" y2="310.0" stroke="#ffffff" stroke-width="0.6" opacity="0.8" stroke-dasharray="3,3"></line>
<circle cx="390.0" cy="292.0" r="6" fill="#000000" stroke="#ffffff" stroke-width="0.8"></circle>
<text x="390.0" y="295.0" fill="#ffffff" font-size="7" text-anchor="middle" font-family="monospace">1</text>
<line x1="614.0" y1="310.0" x2="614.0" y2="292.0" stroke="#ffffff" stroke-width="0.6" opacity="0.8" stroke-dasharray="3,3"></line>
<line x1="614.0" y1="292.0" x2="806.0" y2="292.0" stroke="#ffffff" stroke-width="0.6" opacity="0.8" stroke-dasharray="3,3"></line>
<line x1="806.0" y1="292.0" x2="806.0" y2="310.0" stroke="#ffffff" stroke-width="0.6" opacity="0.8" stroke-dasharray="3,3"></line>
<circle cx="710.0" cy="292.0" r="6" fill="#000000" stroke="#ffffff" stroke-width="0.8"></circle>
<text x="710.0" y="295.0" fill="#ffffff" font-size="7" text-anchor="middle" font-family="monospace">2</text>
<line x1="302.4" y1="304.3" x2="349.6" y2="160.7" stroke="#ffffff" stroke-width="1.5" opacity="1.0"></line>
<polygon points="349.6,160.7 350.1,169.3 344.0,167.3" fill="#ffffff"></polygon>
<circle cx="326.0" cy="232.5" r="5" fill="#000000" stroke="#ffffff" stroke-width="0.6"></circle>
<text x="326.0" y="235.5" fill="#ffffff" font-size="7" text-anchor="middle" font-family="monospace">◇</text>
<text x="326.0" y="224.5" fill="#ffffff" font-size="6" text-anchor="middle" font-family="monospace">↑→↑</text>
<line x1="385.0" y1="135.0" x2="395.0" y2="135.0" stroke="#ffffff" stroke-width="1.5" opacity="1.0"></line>
<polygon points="395.0,135.0 387.0,138.2 387.0,131.8" fill="#ffffff"></polygon>
<circle cx="390.0" cy="135.0" r="5" fill="#000000" stroke="#ffffff" stroke-width="0.6"></circle>
<text x="390.0" y="138.0" fill="#ffffff" font-size="7" text-anchor="middle" font-family="monospace">+</text>
<text x="390.0" y="127.0" fill="#ffffff" font-size="6" text-anchor="middle" font-family="monospace">↑→↑</text>
<line x1="430.4" y1="160.7" x2="477.6" y2="304.3" stroke="#ffffff" stroke-width="1.5" opacity="1.0" stroke-dasharray="2,2"></line>
<polygon points="477.6,304.3 472.0,297.7 478.1,295.7" fill="#ffffff"></polygon>
<text x="454.0" y="224.5" fill="#ffffff" font-size="6" text-anchor="middle" font-family="monospace">↑→↑</text>
<line x1="321.0" y1="330.0" x2="459.0" y2="330.0" stroke="#ffffff" stroke-width="1.5" opacity="1.0"></line>
<polygon points="459.0,330.0 451.0,333.2 451.0,326.8" fill="#ffffff"></polygon>
<circle cx="390.0" cy="330.0" r="5" fill="#000000" stroke="#ffffff" stroke-width="0.6"></circle>
<text x="390.0" y="333.0" fill="#ffffff" font-size="7" text-anchor="middle" font-family="monospace">◇</text>
<text x="390.0" y="322.0" fill="#ffffff" font-size="6" text-anchor="middle" font-family="monospace">↑→↑</text>
<line x1="641.0" y1="330.0" x2="779.0" y2="330.0" stroke="#ffffff" stroke-width="1.5" opacity="1.0"></line>
<polygon points="779.0,330.0 771.0,333.2 771.0,326.8" fill="#ffffff"></polygon>
<circle cx="710.0" cy="330.0" r="5" fill="#000000" stroke="#ffffff" stroke-width="0.6"></circle>
<text x="710.0" y="333.0" fill="#ffffff" font-size="7" text-anchor="middle" font-family="monospace">◇</text>
<text x="710.0" y="322.0" fill="#ffffff" font-size="6" text-anchor="middle" font-family="monospace">↑→↑</text>
<line x1="622.4" y1="355.7" x2="669.6" y2="499.3" stroke="#ffffff" stroke-width="1.5" opacity="1.0"></line>
<polygon points="669.6,499.3 664.0,492.7 670.1,490.7" fill="#ffffff"></polygon>
<circle cx="646.0" cy="427.5" r="5" fill="#000000" stroke="#ffffff" stroke-width="0.6"></circle>
<text x="646.0" y="430.5" fill="#ffffff" font-size="7" text-anchor="middle" font-family="monospace">◇</text>
<text x="646.0" y="419.5" fill="#ffffff" font-size="6" text-anchor="middle" font-family="monospace">↑→↑</text>
<line x1="705.0" y1="525.0" x2="715.0" y2="525.0" stroke="#ffffff" stroke-width="1.5" opacity="1.0"></line>
<polygon points="715.0,525.0 707.0,528.2 707.0,521.8" fill="#ffffff"></polygon>
<circle cx="710.0" cy="525.0" r="5" fill="#000000" stroke="#ffffff" stroke-width="0.6"></circle>
<text x="710.0" y="528.0" fill="#ffffff" font-size="7" text-anchor="middle" font-family="monospace">×</text>
<text x="710.0" y="517.0" fill="#ffffff" font-size="6" text-anchor="middle" font-family="monospace">↑→↑</text>
<line x1="750.4" y1="499.3" x2="797.6" y2="355.7" stroke="#ffffff" stroke-width="1.5" opacity="1.0" stroke-dasharray="6,4"></line>
<polygon points="797.6,355.7 798.1,364.3 792.0,362.3" fill="#ffffff"></polygon>
<text x="774.0" y="419.5" fill="#ffffff" font-size="6" text-anchor="middle" font-family="monospace">↑→↑</text>
<line x1="129.0" y1="330.0" x2="139.0" y2="330.0" stroke="#ffffff" stroke-width="2.0" opacity="1.0"></line>
<polyline points="139.0,330.0 131.0,333.2 131.0,326.8" fill="none" stroke="#ffffff" stroke-width="1.0"></polyline>
<text x="134.0" y="322.0" fill="#ffffff" font-size="6" text-anchor="middle" font-family="monospace">↑</text>
<line x1="193.0" y1="330.0" x2="203.0" y2="330.0" stroke="#ffffff" stroke-width="2.0" opacity="1.0"></line>
<polygon points="193.0,330.0 201.0,326.8 201.0,333.2" fill="#ffffff"></polygon>
<circle cx="198.0" cy="330.0" r="5" fill="#000000" stroke="#ffffff" stroke-width="0.6"></circle>
<text x="198.0" y="333.0" fill="#ffffff" font-size="7" text-anchor="middle" font-family="monospace">←</text>
<text x="198.0" y="322.0" fill="#ffffff" font-size="6" text-anchor="middle" font-family="monospace">↑→↑</text>
<line x1="257.0" y1="330.0" x2="267.0" y2="330.0" stroke="#ffffff" stroke-width="2.5" opacity="1.0"></line>
<polygon points="267.0,330.0 259.0,333.2 259.0,326.8" fill="#ffffff"></polygon>
<text x="262.0" y="322.0" fill="#ffffff" font-size="6" text-anchor="middle" font-family="monospace">↑→↑</text>
<line x1="577.0" y1="328.4" x2="587.0" y2="328.4" stroke="#ffffff" stroke-width="2.0" opacity="1.0"></line>
<line x1="577.0" y1="331.6" x2="587.0" y2="331.6" stroke="#ffffff" stroke-width="2.0" opacity="1.0"></line>
<polygon points="587.0,330.0 579.0,333.2 579.0,326.8" fill="#ffffff"></polygon>
<text x="582.0" y="322.0" fill="#ffffff" font-size="6" text-anchor="middle" font-family="monospace">↑→↑</text>
<polyline points="897.0,334.0 905.0,326.0 907.0,330.0" fill="none" stroke="#ffffff" stroke-width="2.0"></polyline>
<polygon points="907.0,330.0 899.0,333.2 899.0,326.8" fill="#ffffff"></polygon>
<text x="902.0" y="322.0" fill="#ffffff" font-size="6" text-anchor="middle" font-family="monospace">↑→↑</text>
<line x1="961.0" y1="328.4" x2="971.0" y2="328.4" stroke="#ffffff" stroke-width="2.0" opacity="1.0"></line>
<line x1="961.0" y1="331.6" x2="971.0" y2="331.6" stroke="#ffffff" stroke-width="2.0" opacity="1.0"></line>
<polygon points="971.0,330.0 963.0,333.2 963.0,326.8" fill="#ffffff"></polygon>
<text x="966.0" y="322.0" fill="#ffffff" font-size="6" text-anchor="middle" font-family="monospace">↑→↑</text>
<line x1="513.0" y1="330.0" x2="523.0" y2="330.0" stroke="#ffffff" stroke-width="1.5" opacity="1.0"></line>
<polygon points="523.0,330.0 515.0,333.2 515.0,326.8" fill="#ffffff"></polygon>
<circle cx="518.0" cy="330.0" r="5" fill="#000000" stroke="#ffffff" stroke-width="0.6"></circle>
<text x="518.0" y="333.0" fill="#ffffff" font-size="7" text-anchor="middle" font-family="monospace">●</text>
<text x="518.0" y="322.0" fill="#ffffff" font-size="6" text-anchor="middle" font-family="monospace">↑→↑</text>
<line x1="833.0" y1="330.0" x2="843.0" y2="330.0" stroke="#ffffff" stroke-width="1.5" opacity="1.0"></line>
<polygon points="843.0,330.0 835.0,333.2 835.0,326.8" fill="#ffffff"></polygon>
<circle cx="838.0" cy="330.0" r="5" fill="#000000" stroke="#ffffff" stroke-width="0.6"></circle>
<text x="838.0" y="333.0" fill="#ffffff" font-size="7" text-anchor="middle" font-family="monospace">●</text>
<text x="838.0" y="322.0" fill="#ffffff" font-size="6" text-anchor="middle" font-family="monospace">↑→↑</text>
<circle fill="none" stroke="#ffffff" stroke-width="1.3" cx="102.0" cy="330.0" r="20.0"></circle>
<circle cx="78.0" cy="330.0" r="2.5" fill="#000000" stroke="#ffffff" stroke-width="0.8"></circle>
<circle cx="126.0" cy="330.0" r="2.5" fill="#ffffff"></circle>
<text x="102.0" y="304.0" fill="#ffffff" font-size="9" text-anchor="middle" font-family="monospace" font-weight="bold">VI</text>
<text x="102.0" y="362.0" fill="#ffffff" font-size="5" text-anchor="middle" font-family="monospace">VINIT</text>
<circle fill="none" stroke="#ffffff" stroke-width="1.3" cx="166.0" cy="330.0" r="20.0"></circle>
<circle cx="166.0" cy="330.0" r="8" fill="url(#hatch-T)" stroke="#ffffff" stroke-width="0.6"></circle>
<circle cx="142.0" cy="330.0" r="2.5" fill="#000000" stroke="#ffffff" stroke-width="0.8"></circle>
<circle cx="190.0" cy="330.0" r="2.5" fill="#ffffff"></circle>
<text x="166.0" y="304.0" fill="#ffffff" font-size="9" text-anchor="middle" font-family="monospace" font-weight="bold">IM</text>
<text x="166.0" y="362.0" fill="#ffffff" font-size="5" text-anchor="middle" font-family="monospace">IMSCRIB</text>
<circle fill="none" stroke="#ffffff" stroke-width="1.3" cx="230.0" cy="330.0" r="20.0"></circle>
<circle cx="230.0" cy="330.0" r="8" fill="url(#hatch-T)" stroke="#ffffff" stroke-width="0.6"></circle>
<circle cx="206.0" cy="330.0" r="2.5" fill="#000000" stroke="#ffffff" stroke-width="0.8"></circle>
<circle cx="254.0" cy="330.0" r="2.5" fill="#ffffff"></circle>
<text x="230.0" y="304.0" fill="#ffffff" font-size="9" text-anchor="middle" font-family="monospace" font-weight="bold">AF</text>
<text x="230.0" y="362.0" fill="#ffffff" font-size="5" text-anchor="middle" font-family="monospace">AFWD</text>
<polygon fill="none" stroke="#ffffff" stroke-width="1.3" points="294.0,310.0 314.0,330 294.0,350.0 274.0,330"></polygon>
<circle cx="294.0" cy="330.0" r="8" fill="url(#hatch-T)" stroke="#ffffff" stroke-width="0.6"></circle>
<circle cx="270.0" cy="330.0" r="2.5" fill="#000000" stroke="#ffffff" stroke-width="0.8"></circle>
<circle cx="318.0" cy="330.0" r="2.5" fill="#ffffff"></circle>
<text x="294.0" y="304.0" fill="#ffffff" font-size="9" text-anchor="middle" font-family="monospace" font-weight="bold">FS</text>
<text x="294.0" y="362.0" fill="#ffffff" font-size="5" text-anchor="middle" font-family="monospace">FSPLIT</text>
<polygon fill="none" stroke="#ffffff" stroke-width="1.3" points="375.3,145.0 358.0,155.0 340.7,145.0 340.7,125.0 358.0,115.0 375.3,125.0"></polygon>
<circle cx="358.0" cy="135.0" r="8" fill="url(#hatch-T)" stroke="#ffffff" stroke-width="0.6"></circle>
<circle cx="334.0" cy="135.0" r="2.5" fill="#000000" stroke="#ffffff" stroke-width="0.8"></circle>
<circle cx="382.0" cy="135.0" r="2.5" fill="#ffffff"></circle>
<text x="358.0" y="109.0" fill="#ffffff" font-size="9" text-anchor="middle" font-family="monospace" font-weight="bold">ET</text>
<text x="358.0" y="167.0" fill="#ffffff" font-size="5" text-anchor="middle" font-family="monospace">EVALT</text>
<rect fill="none" stroke="#ffffff" stroke-width="1.3" x="402.0" y="115.0" width="40.0" height="40.0"></rect>
<circle cx="422.0" cy="135.0" r="8" fill="url(#hatch-T)" stroke="#ffffff" stroke-width="0.6"></circle>
<circle cx="398.0" cy="135.0" r="2.5" fill="#000000" stroke="#ffffff" stroke-width="0.8"></circle>
<circle cx="446.0" cy="135.0" r="2.5" fill="#ffffff"></circle>
<text x="422.0" y="109.0" fill="#ffffff" font-size="9" text-anchor="middle" font-family="monospace" font-weight="bold">IX</text>
<text x="422.0" y="167.0" fill="#ffffff" font-size="5" text-anchor="middle" font-family="monospace">IFIX</text>
<polygon fill="none" stroke="#ffffff" stroke-width="1.3" points="486.0,310.0 506.0,330 486.0,350.0 466.0,330"></polygon>
<circle cx="486.0" cy="330.0" r="8" fill="url(#hatch-T)" stroke="#ffffff" stroke-width="0.6"></circle>
<circle cx="462.0" cy="330.0" r="2.5" fill="#000000" stroke="#ffffff" stroke-width="0.8"></circle>
<circle cx="510.0" cy="330.0" r="2.5" fill="#ffffff"></circle>
<text x="486.0" y="304.0" fill="#ffffff" font-size="9" text-anchor="middle" font-family="monospace" font-weight="bold">FF</text>
<text x="486.0" y="362.0" fill="#ffffff" font-size="5" text-anchor="middle" font-family="monospace">FFUSE</text>
<circle fill="none" stroke="#ffffff" stroke-width="1.3" cx="550.0" cy="330.0" r="20.0"></circle>
<circle cx="550.0" cy="330.0" r="8" fill="url(#hatch-T)" stroke="#ffffff" stroke-width="0.6"></circle>
<circle cx="526.0" cy="330.0" r="2.5" fill="#000000" stroke="#ffffff" stroke-width="0.8"></circle>
<circle cx="574.0" cy="330.0" r="2.5" fill="#ffffff"></circle>
<text x="550.0" y="304.0" fill="#ffffff" font-size="9" text-anchor="middle" font-family="monospace" font-weight="bold">CL</text>
<text x="550.0" y="362.0" fill="#ffffff" font-size="5" text-anchor="middle" font-family="monospace">CLINK</text>
<polygon fill="none" stroke="#ffffff" stroke-width="1.3" points="614.0,310.0 634.0,330 614.0,350.0 594.0,330"></polygon>
<circle cx="614.0" cy="330.0" r="8" fill="url(#hatch-T)" stroke="#ffffff" stroke-width="0.6"></circle>
<circle cx="590.0" cy="330.0" r="2.5" fill="#000000" stroke="#ffffff" stroke-width="0.8"></circle>
<circle cx="638.0" cy="330.0" r="2.5" fill="#ffffff"></circle>
<text x="614.0" y="304.0" fill="#ffffff" font-size="9" text-anchor="middle" font-family="monospace" font-weight="bold">FS</text>
<text x="614.0" y="362.0" fill="#ffffff" font-size="5" text-anchor="middle" font-family="monospace">FSPLIT</text>
<polygon fill="none" stroke="#ffffff" stroke-width="1.3" points="695.3,535.0 678.0,545.0 660.7,535.0 660.7,515.0 678.0,505.0 695.3,515.0"></polygon>
<circle cx="678.0" cy="525.0" r="8" fill="url(#hatch-T)" stroke="#ffffff" stroke-width="0.6"></circle>
<circle cx="654.0" cy="525.0" r="2.5" fill="#000000" stroke="#ffffff" stroke-width="0.8"></circle>
<circle cx="702.0" cy="525.0" r="2.5" fill="#ffffff"></circle>
<text x="678.0" y="499.0" fill="#ffffff" font-size="9" text-anchor="middle" font-family="monospace" font-weight="bold">EF</text>
<text x="678.0" y="557.0" fill="#ffffff" font-size="5" text-anchor="middle" font-family="monospace">EVALF</text>
<circle fill="none" stroke="#ffffff" stroke-width="1.3" cx="742.0" cy="525.0" r="20.0"></circle>
<circle cx="742.0" cy="525.0" r="8" fill="url(#hatch-T)" stroke="#ffffff" stroke-width="0.6"></circle>
<circle cx="718.0" cy="525.0" r="2.5" fill="#000000" stroke="#ffffff" stroke-width="0.8"></circle>
<circle cx="766.0" cy="525.0" r="2.5" fill="#ffffff"></circle>
<text x="742.0" y="499.0" fill="#ffffff" font-size="9" text-anchor="middle" font-family="monospace" font-weight="bold">AR</text>
<text x="742.0" y="557.0" fill="#ffffff" font-size="5" text-anchor="middle" font-family="monospace">AREV</text>
<polygon fill="none" stroke="#ffffff" stroke-width="1.3" points="806.0,310.0 826.0,330 806.0,350.0 786.0,330"></polygon>
<circle cx="806.0" cy="330.0" r="8" fill="url(#hatch-T)" stroke="#ffffff" stroke-width="0.6"></circle>
<circle cx="782.0" cy="330.0" r="2.5" fill="#000000" stroke="#ffffff" stroke-width="0.8"></circle>
<circle cx="830.0" cy="330.0" r="2.5" fill="#ffffff"></circle>
<text x="806.0" y="304.0" fill="#ffffff" font-size="9" text-anchor="middle" font-family="monospace" font-weight="bold">FF</text>
<text x="806.0" y="362.0" fill="#ffffff" font-size="5" text-anchor="middle" font-family="monospace">FFUSE</text>
<polygon fill="none" stroke="#ffffff" stroke-width="1.3" points="887.3,340.0 870.0,350.0 852.7,340.0 852.7,320.0 870.0,310.0 887.3,320.0"></polygon>
<circle cx="870.0" cy="330.0" r="8" fill="url(#hatch-T)" stroke="#ffffff" stroke-width="0.6"></circle>
<circle cx="846.0" cy="330.0" r="2.5" fill="#000000" stroke="#ffffff" stroke-width="0.8"></circle>
<circle cx="894.0" cy="330.0" r="2.5" fill="#ffffff"></circle>
<text x="870.0" y="304.0" fill="#ffffff" font-size="9" text-anchor="middle" font-family="monospace" font-weight="bold">EG</text>
<text x="870.0" y="362.0" fill="#ffffff" font-size="5" text-anchor="middle" font-family="monospace">ENGAGR</text>
<circle fill="none" stroke="#ffffff" stroke-width="1.3" cx="934.0" cy="330.0" r="20.0"></circle>
<circle cx="934.0" cy="330.0" r="8" fill="url(#hatch-T)" stroke="#ffffff" stroke-width="0.6"></circle>
<circle cx="910.0" cy="330.0" r="2.5" fill="#000000" stroke="#ffffff" stroke-width="0.8"></circle>
<circle cx="958.0" cy="330.0" r="2.5" fill="#ffffff"></circle>
<text x="934.0" y="304.0" fill="#ffffff" font-size="9" text-anchor="middle" font-family="monospace" font-weight="bold">CL</text>
<text x="934.0" y="362.0" fill="#ffffff" font-size="5" text-anchor="middle" font-family="monospace">CLINK</text>
<circle fill="none" stroke="#ffffff" stroke-width="1.3" cx="998.0" cy="330.0" r="20.0"></circle>
<circle cx="998.0" cy="330.0" r="8" fill="url(#hatch-T)" stroke="#ffffff" stroke-width="0.6"></circle>
<circle cx="974.0" cy="330.0" r="2.5" fill="#000000" stroke="#ffffff" stroke-width="0.8"></circle>
<circle cx="1022.0" cy="330.0" r="2.5" fill="#ffffff"></circle>
<text x="998.0" y="304.0" fill="#ffffff" font-size="9" text-anchor="middle" font-family="monospace" font-weight="bold">TA</text>
<text x="998.0" y="362.0" fill="#ffffff" font-size="5" text-anchor="middle" font-family="monospace">TANCH</text>
<text x="14.0" y="72.0" fill="#ffffff" font-size="6" text-anchor="start" font-family="monospace" font-weight="bold">EDGES</text>
<line x1="14.0" y1="82.0" x2="36.0" y2="82.0" stroke="#ffffff" stroke-width="1.5" opacity="0.7"></line>
<text x="42.0" y="84.0" fill="#ffffff" font-size="5" text-anchor="start" font-family="monospace">VI</text>
<line x1="14.0" y1="91.5" x2="36.0" y2="91.5" stroke="#ffffff" stroke-width="1.5" opacity="0.7" stroke-dasharray="5,2,1,2,1,2"></line>
<text x="42.0" y="93.5" fill="#ffffff" font-size="5" text-anchor="start" font-family="monospace">TA</text>
<line x1="14.0" y1="101.0" x2="36.0" y2="101.0" stroke="#ffffff" stroke-width="2.0" opacity="0.7"></line>
<text x="42.0" y="103.0" fill="#ffffff" font-size="5" text-anchor="start" font-family="monospace">AF</text>
<line x1="14.0" y1="110.5" x2="36.0" y2="110.5" stroke="#ffffff" stroke-width="1.5" opacity="0.7" stroke-dasharray="6,4"></line>
<text x="42.0" y="112.5" fill="#ffffff" font-size="5" text-anchor="start" font-family="monospace">AR</text>
<line x1="14.0" y1="119.0" x2="36.0" y2="119.0" stroke="#ffffff" stroke-width="1.0" opacity="0.7"></line>
<line x1="14.0" y1="121.0" x2="36.0" y2="121.0" stroke="#ffffff" stroke-width="1.0" opacity="0.7"></line>
<text x="42.0" y="122.0" fill="#ffffff" font-size="5" text-anchor="start" font-family="monospace">CL</text>
<line x1="14.0" y1="129.5" x2="36.0" y2="129.5" stroke="#ffffff" stroke-width="1.5" opacity="0.7"></line>
<text x="42.0" y="131.5" fill="#ffffff" font-size="5" text-anchor="start" font-family="monospace">IM</text>
<line x1="14.0" y1="139.0" x2="36.0" y2="139.0" stroke="#ffffff" stroke-width="1.5" opacity="0.7"></line>
<text x="42.0" y="141.0" fill="#ffffff" font-size="5" text-anchor="start" font-family="monospace">FS</text>
<line x1="14.0" y1="148.5" x2="36.0" y2="148.5" stroke="#ffffff" stroke-width="1.5" opacity="0.7"></line>
<text x="42.0" y="150.5" fill="#ffffff" font-size="5" text-anchor="start" font-family="monospace">FF</text>
<line x1="14.0" y1="158.0" x2="36.0" y2="158.0" stroke="#ffffff" stroke-width="1.5" opacity="0.7"></line>
<text x="42.0" y="160.0" fill="#ffffff" font-size="5" text-anchor="start" font-family="monospace">ET</text>
<line x1="14.0" y1="167.5" x2="36.0" y2="167.5" stroke="#ffffff" stroke-width="1.5" opacity="0.7"></line>
<text x="42.0" y="169.5" fill="#ffffff" font-size="5" text-anchor="start" font-family="monospace">EF</text>
<polyline points="14.0,179.0 18.0,175.0 22.0,179.0 26.0,175.0 30.0,179.0 34.0,175.0 36.0,177.0" fill="none" stroke="#ffffff" stroke-width="1.0"></polyline>
<text x="42.0" y="179.0" fill="#ffffff" font-size="5" text-anchor="start" font-family="monospace">EG</text>
<line x1="14.0" y1="186.5" x2="36.0" y2="186.5" stroke="#ffffff" stroke-width="1.5" opacity="0.7" stroke-dasharray="2,2"></line>
<text x="42.0" y="188.5" fill="#ffffff" font-size="5" text-anchor="start" font-family="monospace">IX</text>
<text x="14.0" y="195.0" fill="#ffffff" font-size="6" text-anchor="start" font-family="monospace" font-weight="bold">GUARD</text>
<circle cx="17" cy="206" r="2.5" fill="#000000" stroke="#ffffff" stroke-width="0.8"></circle>
<text x="24.0" y="208.0" fill="#ffffff" font-size="5" text-anchor="start" font-family="monospace">in</text>
<circle cx="17" cy="216" r="2.5" fill="#ffffff"></circle>
<text x="24.0" y="218.0" fill="#ffffff" font-size="5" text-anchor="start" font-family="monospace">out</text>
<text x="14.0" y="231.0" fill="#ffffff" font-size="6" text-anchor="start" font-family="monospace" font-weight="bold">NODES</text>
<circle fill="none" stroke="#ffffff" stroke-width="1.0" cx="18.0" cy="246.0" r="4.0"></circle>
<text x="28.0" y="248.0" fill="#ffffff" font-size="5" text-anchor="start" font-family="monospace">LOGI</text>
<polygon fill="none" stroke="#ffffff" stroke-width="1.0" points="18,254.0 22.0,258 18,262.0 14.0,258"></polygon>
<text x="28.0" y="260.0" fill="#ffffff" font-size="5" text-anchor="start" font-family="monospace">FROB</text>
<polygon fill="none" stroke="#ffffff" stroke-width="1.0" points="21.5,272.0 18.0,274.0 14.5,272.0 14.5,268.0 18.0,266.0 21.5,268.0"></polygon>
<text x="28.0" y="272.0" fill="#ffffff" font-size="5" text-anchor="start" font-family="monospace">DIAL</text>
<rect fill="none" stroke="#ffffff" stroke-width="1.0" x="14.0" y="278.0" width="8.0" height="8.0"></rect>
<text x="28.0" y="284.0" fill="#ffffff" font-size="5" text-anchor="start" font-family="monospace">LINE</text>
<text x="14.0" y="294.0" fill="#ffffff" font-size="6" text-anchor="start" font-family="monospace" font-weight="bold">PAIRS</text>
<circle cx="18" cy="306" r="5" fill="#000000" stroke="#ffffff" stroke-width="0.8"></circle>
<text x="18.0" y="309.0" fill="#ffffff" font-size="6" text-anchor="middle" font-family="monospace">1</text>
<text x="28.0" y="308.0" fill="#ffffff" font-size="5" text-anchor="start" font-family="monospace">pair</text>
<text x="14.0" y="324.0" fill="#ffffff" font-size="6" text-anchor="start" font-family="monospace" font-weight="bold">REG Δ</text>
<text x="14.0" y="336.0" fill="#ffffff" font-size="5" text-anchor="start" font-family="monospace">↑ T</text>
<text x="14.0" y="345.0" fill="#ffffff" font-size="5" text-anchor="start" font-family="monospace">↓ F</text>
<text x="14.0" y="354.0" fill="#ffffff" font-size="5" text-anchor="start" font-family="monospace">↑↓ B</text>
<text x="610.0" y="708.0" fill="#ffffff" font-size="7" text-anchor="middle" font-family="monospace">Ouroboricity: O₁</text>
<path d="M 193.0,330.0 L 193.0,10.0 L 971.0,10.0 L 971.0,330.0" fill="none" stroke="#ffffff" stroke-width="1.2"></path>
<polygon points="971.0,330.0 967.8,322.0 974.2,322.0" fill="#ffffff"></polygon>
<text x="582.0" y="12.0" fill="#ffffff" font-size="7" text-anchor="middle" font-family="monospace">O₁</text>
</svg>